<mxfile host="app.diagrams.net" modified="2021-11-30T02:04:11.653Z" agent="5.0 (Macintosh; Intel Mac OS X 10_15_6) AppleWebKit/537.36 (KHTML, like Gecko) Chrome/96.0.4664.55 Safari/537.36" etag="vamRuI9Xcq2OhOsnTmto" version="15.8.6" type="github" pages="2">
  <diagram id="2RsY1DbQtp5GMzKksHe6" name="Page-1">
    <mxGraphModel dx="946" dy="546" grid="1" gridSize="10" guides="1" tooltips="1" connect="1" arrows="1" fold="1" page="1" pageScale="1" pageWidth="827" pageHeight="1169" math="0" shadow="0">
      <root>
        <mxCell id="0" />
        <mxCell id="1" parent="0" />
        <mxCell id="Le0XuNN7UkYHsd7Vrqni-1" value="" style="rounded=0;whiteSpace=wrap;html=1;fontColor=#FF3333;" parent="1" vertex="1">
          <mxGeometry x="110" y="40" width="610" height="1380" as="geometry" />
        </mxCell>
        <mxCell id="Le0XuNN7UkYHsd7Vrqni-2" value="kafkaProducer&amp;nbsp;" style="text;html=1;strokeColor=none;fillColor=none;align=center;verticalAlign=middle;whiteSpace=wrap;rounded=0;fontColor=#FF3333;" parent="1" vertex="1">
          <mxGeometry x="630" y="60" width="60" height="30" as="geometry" />
        </mxCell>
        <mxCell id="Le0XuNN7UkYHsd7Vrqni-5" value="" style="edgeStyle=orthogonalEdgeStyle;rounded=0;orthogonalLoop=1;jettySize=auto;html=1;fontColor=#FF3333;" parent="1" source="Le0XuNN7UkYHsd7Vrqni-3" target="Le0XuNN7UkYHsd7Vrqni-4" edge="1">
          <mxGeometry relative="1" as="geometry" />
        </mxCell>
        <mxCell id="Le0XuNN7UkYHsd7Vrqni-3" value="初始化producerConfig" style="rounded=0;whiteSpace=wrap;html=1;fontColor=#FF3333;" parent="1" vertex="1">
          <mxGeometry x="300" y="60" width="120" height="60" as="geometry" />
        </mxCell>
        <mxCell id="Le0XuNN7UkYHsd7Vrqni-7" value="" style="edgeStyle=orthogonalEdgeStyle;rounded=0;orthogonalLoop=1;jettySize=auto;html=1;fontColor=#FF3333;" parent="1" source="Le0XuNN7UkYHsd7Vrqni-4" target="Le0XuNN7UkYHsd7Vrqni-6" edge="1">
          <mxGeometry relative="1" as="geometry" />
        </mxCell>
        <mxCell id="Le0XuNN7UkYHsd7Vrqni-4" value="获取clientId,metircrs/tranactionalId/partitioner" style="whiteSpace=wrap;html=1;rounded=0;fontColor=#FF3333;" parent="1" vertex="1">
          <mxGeometry x="300" y="140" width="120" height="60" as="geometry" />
        </mxCell>
        <mxCell id="Le0XuNN7UkYHsd7Vrqni-9" value="" style="edgeStyle=orthogonalEdgeStyle;rounded=0;orthogonalLoop=1;jettySize=auto;html=1;fontColor=#FF3333;" parent="1" source="Le0XuNN7UkYHsd7Vrqni-6" target="Le0XuNN7UkYHsd7Vrqni-8" edge="1">
          <mxGeometry relative="1" as="geometry" />
        </mxCell>
        <mxCell id="Le0XuNN7UkYHsd7Vrqni-6" value="初始化&lt;span style=&quot;color: rgb(152 , 118 , 170) ; background-color: rgb(43 , 43 , 43) ; font-family: &amp;#34;jetbrains mono&amp;#34; , monospace ; font-size: 9.8pt&quot;&gt;keySerializer/&lt;/span&gt;&lt;span style=&quot;color: rgb(152 , 118 , 170) ; background-color: rgb(43 , 43 , 43) ; font-family: &amp;#34;jetbrains mono&amp;#34; , monospace ; font-size: 9.8pt&quot;&gt;valueSerializer&lt;/span&gt;" style="whiteSpace=wrap;html=1;rounded=0;fontColor=#FF3333;" parent="1" vertex="1">
          <mxGeometry x="300" y="230" width="120" height="60" as="geometry" />
        </mxCell>
        <mxCell id="Le0XuNN7UkYHsd7Vrqni-11" value="" style="edgeStyle=orthogonalEdgeStyle;rounded=0;orthogonalLoop=1;jettySize=auto;html=1;fontColor=#FF3333;" parent="1" source="Le0XuNN7UkYHsd7Vrqni-8" target="Le0XuNN7UkYHsd7Vrqni-10" edge="1">
          <mxGeometry relative="1" as="geometry" />
        </mxCell>
        <mxCell id="Le0XuNN7UkYHsd7Vrqni-8" value="初始化拦截器，metadata," style="whiteSpace=wrap;html=1;rounded=0;fontColor=#FF3333;" parent="1" vertex="1">
          <mxGeometry x="310" y="340" width="120" height="60" as="geometry" />
        </mxCell>
        <mxCell id="Le0XuNN7UkYHsd7Vrqni-13" value="" style="edgeStyle=orthogonalEdgeStyle;rounded=0;orthogonalLoop=1;jettySize=auto;html=1;fontColor=#FF3333;" parent="1" source="Le0XuNN7UkYHsd7Vrqni-10" target="Le0XuNN7UkYHsd7Vrqni-12" edge="1">
          <mxGeometry relative="1" as="geometry" />
        </mxCell>
        <mxCell id="Le0XuNN7UkYHsd7Vrqni-10" value="&lt;span style=&quot;color: rgb(255 , 51 , 51) ; font-family: &amp;#34;helvetica&amp;#34; ; font-size: 12px ; font-style: normal ; font-weight: 400 ; letter-spacing: normal ; text-align: center ; text-indent: 0px ; text-transform: none ; word-spacing: 0px ; background-color: rgb(248 , 249 , 250) ; display: inline ; float: none&quot;&gt;maxRequestSIze&lt;/span&gt;(单个请求，默认 1M)" style="whiteSpace=wrap;html=1;rounded=0;fontColor=#FF3333;" parent="1" vertex="1">
          <mxGeometry x="310" y="430" width="120" height="60" as="geometry" />
        </mxCell>
        <mxCell id="Le0XuNN7UkYHsd7Vrqni-15" value="" style="edgeStyle=orthogonalEdgeStyle;rounded=0;orthogonalLoop=1;jettySize=auto;html=1;fontColor=#FF3333;" parent="1" source="Le0XuNN7UkYHsd7Vrqni-12" target="Le0XuNN7UkYHsd7Vrqni-14" edge="1">
          <mxGeometry relative="1" as="geometry" />
        </mxCell>
        <mxCell id="Le0XuNN7UkYHsd7Vrqni-12" value="totalMemorySize（32M）" style="whiteSpace=wrap;html=1;rounded=0;fontColor=#FF3333;" parent="1" vertex="1">
          <mxGeometry x="310" y="510" width="120" height="60" as="geometry" />
        </mxCell>
        <mxCell id="Le0XuNN7UkYHsd7Vrqni-17" value="" style="edgeStyle=orthogonalEdgeStyle;rounded=0;orthogonalLoop=1;jettySize=auto;html=1;fontColor=#FF3333;" parent="1" source="Le0XuNN7UkYHsd7Vrqni-14" target="Le0XuNN7UkYHsd7Vrqni-16" edge="1">
          <mxGeometry relative="1" as="geometry" />
        </mxCell>
        <mxCell id="Le0XuNN7UkYHsd7Vrqni-14" value="&lt;pre style=&quot;background-color: rgb(43 , 43 , 43) ; font-family: &amp;#34;jetbrains mono&amp;#34; , monospace ; font-size: 9.8pt&quot;&gt;&lt;font color=&quot;#9876aa&quot;&gt;compressionType 压缩类型&lt;/font&gt;&lt;/pre&gt;" style="whiteSpace=wrap;html=1;rounded=0;fontColor=#FF3333;" parent="1" vertex="1">
          <mxGeometry x="310" y="610" width="120" height="60" as="geometry" />
        </mxCell>
        <mxCell id="Le0XuNN7UkYHsd7Vrqni-20" value="" style="edgeStyle=orthogonalEdgeStyle;rounded=0;orthogonalLoop=1;jettySize=auto;html=1;fontColor=#FF3333;" parent="1" source="Le0XuNN7UkYHsd7Vrqni-16" target="Le0XuNN7UkYHsd7Vrqni-19" edge="1">
          <mxGeometry relative="1" as="geometry" />
        </mxCell>
        <mxCell id="Le0XuNN7UkYHsd7Vrqni-16" value="&lt;pre style=&quot;background-color: #2b2b2b ; color: #a9b7c6 ; font-family: &amp;#34;jetbrains mono&amp;#34; , monospace ; font-size: 9.8pt&quot;&gt;&lt;span style=&quot;color: #6a8759&quot;&gt;max.in.flight.requests.per.connection &lt;/span&gt;&lt;/pre&gt;&lt;pre style=&quot;background-color: #2b2b2b ; color: #a9b7c6 ; font-family: &amp;#34;jetbrains mono&amp;#34; , monospace ; font-size: 9.8pt&quot;&gt;&lt;span style=&quot;color: #6a8759&quot;&gt;单个request中，未获确认的请求数目&lt;/span&gt;&lt;/pre&gt;" style="whiteSpace=wrap;html=1;rounded=0;fontColor=#FF3333;" parent="1" vertex="1">
          <mxGeometry x="310" y="750" width="120" height="60" as="geometry" />
        </mxCell>
        <mxCell id="Le0XuNN7UkYHsd7Vrqni-22" value="" style="edgeStyle=orthogonalEdgeStyle;rounded=0;orthogonalLoop=1;jettySize=auto;html=1;fontColor=#FF3333;" parent="1" source="Le0XuNN7UkYHsd7Vrqni-19" target="Le0XuNN7UkYHsd7Vrqni-21" edge="1">
          <mxGeometry relative="1" as="geometry" />
        </mxCell>
        <mxCell id="Le0XuNN7UkYHsd7Vrqni-19" value="ack数目" style="whiteSpace=wrap;html=1;rounded=0;fontColor=#FF3333;" parent="1" vertex="1">
          <mxGeometry x="310" y="890" width="120" height="60" as="geometry" />
        </mxCell>
        <mxCell id="Le0XuNN7UkYHsd7Vrqni-31" value="" style="edgeStyle=orthogonalEdgeStyle;rounded=0;orthogonalLoop=1;jettySize=auto;html=1;fontColor=#FF3333;" parent="1" source="Le0XuNN7UkYHsd7Vrqni-21" target="Le0XuNN7UkYHsd7Vrqni-30" edge="1">
          <mxGeometry relative="1" as="geometry" />
        </mxCell>
        <mxCell id="Le0XuNN7UkYHsd7Vrqni-21" value="&lt;pre style=&quot;background-color: #2b2b2b ; color: #a9b7c6 ; font-family: &amp;#34;jetbrains mono&amp;#34; , monospace ; font-size: 9.8pt&quot;&gt;&lt;br&gt;&lt;/pre&gt;" style="whiteSpace=wrap;html=1;rounded=0;fontColor=#FF3333;" parent="1" vertex="1">
          <mxGeometry x="217.5" y="1080" width="305" height="110" as="geometry" />
        </mxCell>
        <mxCell id="Le0XuNN7UkYHsd7Vrqni-26" value="producerBatch" style="rounded=1;whiteSpace=wrap;html=1;fontColor=#FF3333;" parent="1" vertex="1">
          <mxGeometry x="250" y="1109" width="70" height="41" as="geometry" />
        </mxCell>
        <mxCell id="Le0XuNN7UkYHsd7Vrqni-27" value="topicPartition" style="text;html=1;strokeColor=none;fillColor=none;align=center;verticalAlign=middle;whiteSpace=wrap;rounded=0;fontColor=#FF3333;" parent="1" vertex="1">
          <mxGeometry x="160" y="1114.5" width="60" height="30" as="geometry" />
        </mxCell>
        <mxCell id="Le0XuNN7UkYHsd7Vrqni-28" value="producerBatch" style="rounded=1;whiteSpace=wrap;html=1;fontColor=#FF3333;" parent="1" vertex="1">
          <mxGeometry x="335" y="1109" width="70" height="41" as="geometry" />
        </mxCell>
        <mxCell id="Le0XuNN7UkYHsd7Vrqni-29" value="&lt;pre style=&quot;background-color: #2b2b2b ; color: #a9b7c6 ; font-family: &amp;#34;jetbrains mono&amp;#34; , monospace ; font-size: 9.8pt&quot;&gt;RecordAccumulator&lt;/pre&gt;" style="text;html=1;strokeColor=none;fillColor=none;align=center;verticalAlign=middle;whiteSpace=wrap;rounded=0;fontColor=#FF3333;" parent="1" vertex="1">
          <mxGeometry x="450" y="1100" width="60" height="30" as="geometry" />
        </mxCell>
        <mxCell id="Le0XuNN7UkYHsd7Vrqni-35" value="" style="edgeStyle=orthogonalEdgeStyle;rounded=0;orthogonalLoop=1;jettySize=auto;html=1;fontColor=#FF3333;" parent="1" source="Le0XuNN7UkYHsd7Vrqni-30" target="Le0XuNN7UkYHsd7Vrqni-34" edge="1">
          <mxGeometry relative="1" as="geometry" />
        </mxCell>
        <mxCell id="Le0XuNN7UkYHsd7Vrqni-30" value="&lt;pre style=&quot;background-color: #2b2b2b ; color: #a9b7c6 ; font-family: &amp;#34;jetbrains mono&amp;#34; , monospace ; font-size: 9.8pt&quot;&gt;&lt;br&gt;&lt;/pre&gt;" style="rounded=0;whiteSpace=wrap;html=1;fontColor=#FF3333;" parent="1" vertex="1">
          <mxGeometry x="275" y="1260" width="175" height="70" as="geometry" />
        </mxCell>
        <mxCell id="Le0XuNN7UkYHsd7Vrqni-33" value="networkClient" style="text;html=1;strokeColor=none;fillColor=none;align=center;verticalAlign=middle;whiteSpace=wrap;rounded=0;fontColor=#FF3333;" parent="1" vertex="1">
          <mxGeometry x="320" y="1280" width="60" height="30" as="geometry" />
        </mxCell>
        <mxCell id="Le0XuNN7UkYHsd7Vrqni-37" value="" style="edgeStyle=orthogonalEdgeStyle;rounded=0;orthogonalLoop=1;jettySize=auto;html=1;fontColor=#FF3333;" parent="1" source="Le0XuNN7UkYHsd7Vrqni-34" target="Le0XuNN7UkYHsd7Vrqni-36" edge="1">
          <mxGeometry relative="1" as="geometry" />
        </mxCell>
        <mxCell id="Le0XuNN7UkYHsd7Vrqni-34" value="sender线程发送" style="whiteSpace=wrap;html=1;rounded=0;fontColor=#FF3333;" parent="1" vertex="1">
          <mxGeometry x="557.5" y="1265" width="122.5" height="60" as="geometry" />
        </mxCell>
        <mxCell id="Le0XuNN7UkYHsd7Vrqni-36" value="服务端" style="whiteSpace=wrap;html=1;rounded=0;fontColor=#FF3333;" parent="1" vertex="1">
          <mxGeometry x="761.25" y="1265" width="120" height="60" as="geometry" />
        </mxCell>
      </root>
    </mxGraphModel>
  </diagram>
  <diagram id="LQlr5eBiDL5cCr8URutE" name="Page-2">
    <mxGraphModel dx="946" dy="1715" grid="1" gridSize="10" guides="1" tooltips="1" connect="1" arrows="1" fold="1" page="1" pageScale="1" pageWidth="827" pageHeight="1169" math="0" shadow="0">
      <root>
        <mxCell id="08VkqXTN-9vtRAVB-POy-0" />
        <mxCell id="08VkqXTN-9vtRAVB-POy-1" parent="08VkqXTN-9vtRAVB-POy-0" />
        <mxCell id="wshkrB87EwRqOd_le96b-0" value="" style="rounded=0;whiteSpace=wrap;html=1;" vertex="1" parent="08VkqXTN-9vtRAVB-POy-1">
          <mxGeometry x="109" y="-70" width="610" height="780" as="geometry" />
        </mxCell>
        <mxCell id="wshkrB87EwRqOd_le96b-1" value="" style="edgeStyle=orthogonalEdgeStyle;rounded=0;orthogonalLoop=1;jettySize=auto;html=1;" edge="1" parent="08VkqXTN-9vtRAVB-POy-1" source="wshkrB87EwRqOd_le96b-2" target="wshkrB87EwRqOd_le96b-4">
          <mxGeometry relative="1" as="geometry" />
        </mxCell>
        <mxCell id="wshkrB87EwRqOd_le96b-2" value="&lt;pre style=&quot;background-color: #2b2b2b ; color: #a9b7c6 ; font-family: &amp;#34;jetbrains mono&amp;#34; , monospace ; font-size: 9.8pt&quot;&gt;&lt;span style=&quot;color: #ffc66d&quot;&gt;doSend&lt;/span&gt;(ProducerRecord&amp;lt;&lt;span style=&quot;color: #507874&quot;&gt;K&lt;/span&gt;&lt;span style=&quot;color: #cc7832&quot;&gt;, &lt;/span&gt;&lt;span style=&quot;color: #507874&quot;&gt;V&lt;/span&gt;&amp;gt; record&lt;span style=&quot;color: #cc7832&quot;&gt;, &lt;/span&gt;Callback callback) {&lt;/pre&gt;" style="rounded=0;whiteSpace=wrap;html=1;" vertex="1" parent="08VkqXTN-9vtRAVB-POy-1">
          <mxGeometry x="139" width="410" height="50" as="geometry" />
        </mxCell>
        <mxCell id="wshkrB87EwRqOd_le96b-3" value="" style="edgeStyle=orthogonalEdgeStyle;rounded=0;orthogonalLoop=1;jettySize=auto;html=1;" edge="1" parent="08VkqXTN-9vtRAVB-POy-1" source="wshkrB87EwRqOd_le96b-4" target="wshkrB87EwRqOd_le96b-7">
          <mxGeometry relative="1" as="geometry" />
        </mxCell>
        <mxCell id="wshkrB87EwRqOd_le96b-4" value="确认要送数据的元数据可用（ClusterAndWaitTime）" style="rounded=1;whiteSpace=wrap;html=1;" vertex="1" parent="08VkqXTN-9vtRAVB-POy-1">
          <mxGeometry x="284" y="100" width="120" height="60" as="geometry" />
        </mxCell>
        <mxCell id="wshkrB87EwRqOd_le96b-5" value="producer doSend" style="text;html=1;strokeColor=none;fillColor=none;align=center;verticalAlign=middle;whiteSpace=wrap;rounded=0;" vertex="1" parent="08VkqXTN-9vtRAVB-POy-1">
          <mxGeometry x="450" y="370" width="220" height="30" as="geometry" />
        </mxCell>
        <mxCell id="wshkrB87EwRqOd_le96b-6" value="" style="edgeStyle=orthogonalEdgeStyle;rounded=0;orthogonalLoop=1;jettySize=auto;html=1;" edge="1" parent="08VkqXTN-9vtRAVB-POy-1" source="wshkrB87EwRqOd_le96b-7" target="wshkrB87EwRqOd_le96b-9">
          <mxGeometry relative="1" as="geometry" />
        </mxCell>
        <mxCell id="wshkrB87EwRqOd_le96b-7" value="获取key/value序列化的对象(&lt;span style=&quot;color: rgb(152 , 118 , 170) ; background-color: rgb(43 , 43 , 43) ; font-family: &amp;#34;jetbrains mono&amp;#34; , monospace ; font-size: 9.8pt&quot;&gt;keySerializer/&lt;/span&gt;&lt;span style=&quot;color: rgb(152 , 118 , 170) ; background-color: rgb(43 , 43 , 43) ; font-family: &amp;#34;jetbrains mono&amp;#34; , monospace ; font-size: 9.8pt&quot;&gt;valueSerializer&lt;/span&gt;&lt;span&gt;)&lt;/span&gt;" style="whiteSpace=wrap;html=1;rounded=1;" vertex="1" parent="08VkqXTN-9vtRAVB-POy-1">
          <mxGeometry x="284" y="190" width="120" height="60" as="geometry" />
        </mxCell>
        <mxCell id="wshkrB87EwRqOd_le96b-8" value="" style="edgeStyle=orthogonalEdgeStyle;rounded=0;orthogonalLoop=1;jettySize=auto;html=1;fontColor=#FF3333;" edge="1" parent="08VkqXTN-9vtRAVB-POy-1" source="wshkrB87EwRqOd_le96b-9" target="wshkrB87EwRqOd_le96b-11">
          <mxGeometry relative="1" as="geometry" />
        </mxCell>
        <mxCell id="wshkrB87EwRqOd_le96b-9" value="加载过滤器，一级获取客户ID" style="whiteSpace=wrap;html=1;rounded=1;" vertex="1" parent="08VkqXTN-9vtRAVB-POy-1">
          <mxGeometry x="284" y="280" width="120" height="60" as="geometry" />
        </mxCell>
        <mxCell id="wshkrB87EwRqOd_le96b-10" value="&lt;pre style=&quot;background-color: rgb(43, 43, 43); font-family: &amp;quot;jetbrains mono&amp;quot;, monospace; font-size: 9.8pt;&quot;&gt;KafkaProducer&lt;/pre&gt;" style="text;html=1;strokeColor=none;fillColor=none;align=center;verticalAlign=middle;whiteSpace=wrap;rounded=0;fontColor=#FF3333;" vertex="1" parent="08VkqXTN-9vtRAVB-POy-1">
          <mxGeometry x="599" y="-30" width="80" height="40" as="geometry" />
        </mxCell>
        <mxCell id="wshkrB87EwRqOd_le96b-14" value="" style="edgeStyle=orthogonalEdgeStyle;rounded=0;orthogonalLoop=1;jettySize=auto;html=1;" edge="1" parent="08VkqXTN-9vtRAVB-POy-1" source="wshkrB87EwRqOd_le96b-11" target="wshkrB87EwRqOd_le96b-13">
          <mxGeometry relative="1" as="geometry" />
        </mxCell>
        <mxCell id="wshkrB87EwRqOd_le96b-11" value="计算当前topic的分区号（负载均衡，默认rr）" style="whiteSpace=wrap;html=1;rounded=1;" vertex="1" parent="08VkqXTN-9vtRAVB-POy-1">
          <mxGeometry x="284" y="380" width="120" height="60" as="geometry" />
        </mxCell>
        <mxCell id="wshkrB87EwRqOd_le96b-12" value="" style="rounded=0;whiteSpace=wrap;html=1;fontColor=#FF3333;" vertex="1" parent="08VkqXTN-9vtRAVB-POy-1">
          <mxGeometry x="189" y="-710" width="271" height="200" as="geometry" />
        </mxCell>
        <mxCell id="wshkrB87EwRqOd_le96b-16" value="" style="edgeStyle=orthogonalEdgeStyle;rounded=0;orthogonalLoop=1;jettySize=auto;html=1;" edge="1" parent="08VkqXTN-9vtRAVB-POy-1" source="wshkrB87EwRqOd_le96b-13" target="wshkrB87EwRqOd_le96b-15">
          <mxGeometry relative="1" as="geometry" />
        </mxCell>
        <mxCell id="wshkrB87EwRqOd_le96b-13" value="封装回调对象；事物管理器" style="whiteSpace=wrap;html=1;rounded=1;" vertex="1" parent="08VkqXTN-9vtRAVB-POy-1">
          <mxGeometry x="284" y="470" width="120" height="60" as="geometry" />
        </mxCell>
        <mxCell id="wshkrB87EwRqOd_le96b-15" value="记录放在内存池当中" style="whiteSpace=wrap;html=1;rounded=1;" vertex="1" parent="08VkqXTN-9vtRAVB-POy-1">
          <mxGeometry x="284" y="570" width="120" height="60" as="geometry" />
        </mxCell>
        <mxCell id="wshkrB87EwRqOd_le96b-17" value="" style="rounded=0;whiteSpace=wrap;html=1;" vertex="1" parent="08VkqXTN-9vtRAVB-POy-1">
          <mxGeometry x="110" y="840" width="580" height="690" as="geometry" />
        </mxCell>
        <mxCell id="wshkrB87EwRqOd_le96b-18" value="&lt;pre style=&quot;background-color: #2b2b2b ; color: #a9b7c6 ; font-family: &amp;#34;jetbrains mono&amp;#34; , monospace ; font-size: 9.8pt&quot;&gt;RecordAccumulator 内存池&lt;/pre&gt;" style="text;html=1;strokeColor=none;fillColor=none;align=center;verticalAlign=middle;whiteSpace=wrap;rounded=0;" vertex="1" parent="08VkqXTN-9vtRAVB-POy-1">
          <mxGeometry x="520" y="850" width="60" height="30" as="geometry" />
        </mxCell>
        <mxCell id="-FqThS1r9pVHNP5tgcdI-2" value="" style="edgeStyle=orthogonalEdgeStyle;rounded=0;orthogonalLoop=1;jettySize=auto;html=1;" edge="1" parent="08VkqXTN-9vtRAVB-POy-1" source="-FqThS1r9pVHNP5tgcdI-0" target="-FqThS1r9pVHNP5tgcdI-1">
          <mxGeometry relative="1" as="geometry" />
        </mxCell>
        <mxCell id="-FqThS1r9pVHNP5tgcdI-0" value="&lt;pre style=&quot;background-color: #2b2b2b ; color: #a9b7c6 ; font-family: &amp;#34;jetbrains mono&amp;#34; , monospace ; font-size: 9.8pt&quot;&gt;&lt;span style=&quot;color: #9876aa&quot;&gt;appendsInProgress &lt;/span&gt;&lt;/pre&gt;&lt;pre style=&quot;background-color: #2b2b2b ; color: #a9b7c6 ; font-family: &amp;#34;jetbrains mono&amp;#34; , monospace ; font-size: 9.8pt&quot;&gt;&lt;span style=&quot;color: #9876aa&quot;&gt;获取当前处理的producerBatch数目，并且加一&lt;/span&gt;&lt;/pre&gt;" style="rounded=1;whiteSpace=wrap;html=1;" vertex="1" parent="08VkqXTN-9vtRAVB-POy-1">
          <mxGeometry x="230" y="880" width="120" height="60" as="geometry" />
        </mxCell>
        <mxCell id="-FqThS1r9pVHNP5tgcdI-4" value="" style="edgeStyle=orthogonalEdgeStyle;rounded=0;orthogonalLoop=1;jettySize=auto;html=1;" edge="1" parent="08VkqXTN-9vtRAVB-POy-1" source="-FqThS1r9pVHNP5tgcdI-1" target="-FqThS1r9pVHNP5tgcdI-3">
          <mxGeometry relative="1" as="geometry" />
        </mxCell>
        <mxCell id="-FqThS1r9pVHNP5tgcdI-1" value="&lt;pre style=&quot;background-color: #2b2b2b ; color: #a9b7c6 ; font-family: &amp;#34;jetbrains mono&amp;#34; , monospace ; font-size: 9.8pt&quot;&gt;&lt;span style=&quot;color: #808080&quot;&gt;获取当前topicpartition&lt;/span&gt;&lt;/pre&gt;&lt;pre style=&quot;background-color: #2b2b2b ; color: #a9b7c6 ; font-family: &amp;#34;jetbrains mono&amp;#34; , monospace ; font-size: 9.8pt&quot;&gt;&lt;span style=&quot;color: #808080&quot;&gt;所在内存池队列&lt;/span&gt;&lt;/pre&gt;" style="whiteSpace=wrap;html=1;rounded=1;" vertex="1" parent="08VkqXTN-9vtRAVB-POy-1">
          <mxGeometry x="230" y="1020" width="120" height="60" as="geometry" />
        </mxCell>
        <mxCell id="-FqThS1r9pVHNP5tgcdI-6" value="" style="edgeStyle=orthogonalEdgeStyle;rounded=0;orthogonalLoop=1;jettySize=auto;html=1;" edge="1" parent="08VkqXTN-9vtRAVB-POy-1" source="-FqThS1r9pVHNP5tgcdI-3" target="-FqThS1r9pVHNP5tgcdI-5">
          <mxGeometry relative="1" as="geometry" />
        </mxCell>
        <mxCell id="-FqThS1r9pVHNP5tgcdI-3" value="加锁，尝试增加数据行" style="whiteSpace=wrap;html=1;rounded=1;" vertex="1" parent="08VkqXTN-9vtRAVB-POy-1">
          <mxGeometry x="230" y="1160" width="120" height="60" as="geometry" />
        </mxCell>
        <mxCell id="-FqThS1r9pVHNP5tgcdI-5" value="" style="whiteSpace=wrap;html=1;rounded=1;" vertex="1" parent="08VkqXTN-9vtRAVB-POy-1">
          <mxGeometry x="230" y="1300" width="120" height="60" as="geometry" />
        </mxCell>
      </root>
    </mxGraphModel>
  </diagram>
</mxfile>
